# 

mtllib mato.mtl

v -5 14.8823 -0.5
v 5 14.8823 -0.5
v 5 4.882299 -0.5
v -5 4.882299 -0.5
v 5 14.8823 -0.5
v 5 14.8823 0.5
v 5 4.882299 0.5
v 5 4.882299 -0.5
v 5 14.8823 0.5
v -5 14.8823 0.5
v -5 4.882299 0.5
v 5 4.882299 0.5
v -5 14.8823 0.5
v -5 14.8823 -0.5
v -5 4.882299 -0.5
v -5 4.882299 0.5
v 5 14.8823 -0.5
v -5 14.8823 -0.5
v -5 4.882299 -0.5
v 5 4.882299 -0.5
v -0.5 8.712599 -0.5
v 0.5 8.712599 -0.5
v 0.5 0.0134 -0.5
v -0.5 0.0134 -0.5
v 0.5 8.712599 -0.5
v 0.5 8.712599 0.5
v 0.5 0.0134 0.5
v 0.5 0.0134 -0.5
v 0.5 8.712599 0.5
v -0.5 8.712599 0.5
v -0.5 0.0134 0.5
v 0.5 0.0134 0.5
v -0.5 8.712599 0.5
v -0.5 8.712599 -0.5
v -0.5 0.0134 -0.5
v -0.5 0.0134 0.5
v 0.5 8.712599 -0.5
v -0.5 8.712599 -0.5
v -0.5 0.0134 -0.5
v 0.5 0.0134 -0.5
v -4.75 14.629 -0.772
v 4.75 14.629 -0.772
v 4.75 5.128999 -0.772
v -4.75 5.128999 -0.772
v -5 14.8823 0.5
v 5 14.8823 0.5
v 5 4.882299 0.5
v -5 4.882299 0.5
v -0.5 8.712599 0.5
v 0.5 8.712599 0.5
v 0.5 0.0134 0.5
v -0.5 0.0134 0.5

vt 0 0
vt 1 0
vt 1 1
vt 0 1
vt 0 0
vt 1 0
vt 1 1
vt 0 1
vt 0 0
vt 1 0
vt 1 1
vt 0 1
vt 0 0
vt 1 0
vt 1 1
vt 0 1
vt 1 1
vt 0 1
vt 0 0
vt 1 0
vt 0 0
vt 1 0
vt 1 1
vt 0 1
vt 0 0
vt 1 0
vt 1 1
vt 0 1
vt 0 0
vt 1 0
vt 1 1
vt 0 1
vt 0 0
vt 1 0
vt 1 1
vt 0 1
vt 1 1
vt 0 1
vt 0 0
vt 1 0
vt 0 0
vt 1 0
vt 1 1
vt 0 1
vt 0 0
vt 1 0
vt 1 1
vt 0 1
vt 0 0
vt 1 0
vt 1 1
vt 0 1

vn 0 0 -0.9999999
vn 0 0 -0.9999999
vn 0 0 -0.9999999
vn 0 0 -0.9999999
vn 0.9999999 0 0
vn 0.9999999 0 0
vn 0.9999999 0 0
vn 0.9999999 0 0
vn 0 0 0.9999999
vn 0 0 0.9999999
vn 0 0 0.9999999
vn 0 0 0.9999999
vn -0.9999999 0 0
vn -0.9999999 0 0
vn -0.9999999 0 0
vn -0.9999999 0 0
vn 0 0.9999999 0
vn 0 0.9999999 0
vn 0 -0.9999999 0
vn 0 -0.9999999 0
vn 0 0 -0.9999999
vn 0 0 -0.9999999
vn 0 0 -0.9999999
vn 0 0 -0.9999999
vn 0.9999999 0 0
vn 0.9999999 0 0
vn 0.9999999 0 0
vn 0.9999999 0 0
vn 0 0 0.9999999
vn 0 0 0.9999999
vn 0 0 0.9999999
vn 0 0 0.9999999
vn -0.9999999 0 0
vn -0.9999999 0 0
vn -0.9999999 0 0
vn -0.9999999 0 0
vn 0 0.9999999 0
vn 0 0.9999999 0
vn 0 -0.9999999 0
vn 0 -0.9999999 0
vn 0 0 -0.9999999
vn 0 0 -0.9999999
vn 0 0 -0.9999999
vn 0 0 -0.9999999
vn 0 0.9999999 0
vn 0 0.9999999 0
vn 0 -0.9999999 0
vn 0 -0.9999999 0
vn 0 0.9999999 0
vn 0 0.9999999 0
vn 0 -0.9999999 0
vn 0 -0.9999999 0

g obj1
usemtl m0
f 1/1/1 2/2/2 3/3/3
f 1/1/1 3/3/3 4/4/4
f 5/5/5 6/6/6 7/7/7
f 5/5/5 7/7/7 8/8/8
f 9/9/9 10/10/10 11/11/11
f 9/9/9 11/11/11 12/12/12
f 13/13/13 14/14/14 15/15/15
f 13/13/13 15/15/15 16/16/16
f 45/45/45 46/46/46 17/17/17
f 45/45/45 17/17/17 18/18/18
f 19/19/19 20/20/20 47/47/47
f 19/19/19 47/47/47 48/48/48
f 21/21/21 22/22/22 23/23/23
f 21/21/21 23/23/23 24/24/24
f 25/25/25 26/26/26 27/27/27
f 25/25/25 27/27/27 28/28/28
f 29/29/29 30/30/30 31/31/31
f 29/29/29 31/31/31 32/32/32
f 33/33/33 34/34/34 35/35/35
f 33/33/33 35/35/35 36/36/36
f 49/49/49 50/50/50 37/37/37
f 49/49/49 37/37/37 38/38/38
f 39/39/39 40/40/40 51/51/51
f 39/39/39 51/51/51 52/52/52
usemtl m1
f 41/41/41 42/42/42 43/43/43
f 41/41/41 43/43/43 44/44/44
